<?xml version="1.0" encoding="iso-8859-1"?>
<!-- Generator: Adobe Illustrator 19.0.0, SVG Export Plug-In . SVG Version: 6.00 Build 0)  -->
<svg version="1.1" id="Capa_1" xmlns="http://www.w3.org/2000/svg" xmlns:xlink="http://www.w3.org/1999/xlink" x="0px" y="0px"
	 viewBox="0 0 512 512" style="enable-background:new 0 0 512 512;" xml:space="preserve">
<g>
	<path style="fill:#EFEFEF;" d="M135.558,339.864c-4.268,0-7.727-3.459-7.727-7.727v-45.683c0-7.037,3.406-13.698,9.112-17.818
		l12.168-8.786c3.46-2.497,8.291-1.716,10.788,1.742c2.498,3.46,1.719,8.291-1.742,10.789l-12.167,8.785
		c-1.693,1.222-2.704,3.199-2.704,5.288v45.683C143.285,336.405,139.825,339.864,135.558,339.864z"/>
	<path style="fill:#EFEFEF;" d="M376.442,339.864c-4.267,0-7.727-3.459-7.727-7.727v-45.683c0-2.089-1.011-4.066-2.705-5.289
		l-12.166-8.784c-3.46-2.498-4.239-7.329-1.741-10.789c2.498-3.458,7.328-4.239,10.788-1.742l12.166,8.785
		c5.706,4.121,9.113,10.782,9.113,17.819v45.683C384.169,336.405,380.709,339.864,376.442,339.864z"/>
	<path style="fill:#EFEFEF;" d="M256,339.864c-4.268,0-7.727-3.459-7.727-7.727v-66.92c0-4.268,3.46-7.727,7.727-7.727
		c4.268,0,7.727,3.459,7.727,7.727v66.92C263.727,336.405,260.267,339.864,256,339.864z"/>
</g>
<path style="fill:#F94A46;" d="M206.391,13.273c-47.38,27.355-63.671,88.155-36.317,135.534
	c27.355,47.38,88.155,63.671,135.535,36.316c47.379-27.354,63.67-88.155,36.316-135.534C314.571,2.21,253.77-14.081,206.391,13.273z
	"/>
<path style="fill:#EF3C3C;" d="M196.842,133.353C172.116,90.526,183.055,36.735,220.378,6.59
	c-56.999,21.962-80.645,89.664-50.303,142.217c30.414,52.679,100.917,65.829,148.315,27.545
	C273.622,193.602,221.569,176.18,196.842,133.353z"/>
<g>
	<path style="fill:#666666;" d="M165.116,271.984c-4.39,0-8.717-2.036-11.483-5.868c-4.574-6.336-3.146-15.18,3.189-19.754
		l8.027-5.795c6.334-4.572,15.18-3.148,19.754,3.189c4.574,6.336,3.146,15.18-3.189,19.754l-8.027,5.795
		C170.884,271.113,167.986,271.984,165.116,271.984z"/>
	<path style="fill:#666666;" d="M346.883,271.984c4.39,0,8.717-2.036,11.483-5.868c4.574-6.336,3.146-15.18-3.189-19.754
		l-8.027-5.795c-6.334-4.572-15.18-3.148-19.754,3.189c-4.574,6.336-3.146,15.18,3.189,19.754l8.027,5.795
		C341.116,271.113,344.013,271.984,346.883,271.984z"/>
</g>
<g>
	<path style="fill:#CCCCCC;" d="M153.881,374.263V350.46c0-10.119-8.204-18.323-18.323-18.323c-10.12,0-18.324,8.204-18.324,18.323
		v23.803H153.881z"/>
	<path style="fill:#CCCCCC;" d="M358.118,374.263V350.46c0-10.119,8.204-18.323,18.323-18.323c10.12,0,18.324,8.204,18.324,18.323
		v23.803H358.118z"/>
	<path style="fill:#CCCCCC;" d="M237.676,374.263V350.46c0-10.119,8.204-18.323,18.323-18.323c10.12,0,18.324,8.204,18.324,18.323
		v23.803H237.676z"/>
</g>
<g>
	<path style="fill:#BCBBBB;" d="M144.72,334.608c-12.089-7.002-27.485,1.664-27.485,15.852v23.803h18.323V350.46
		C135.558,343.682,139.248,337.778,144.72,334.608z"/>
	<path style="fill:#BCBBBB;" d="M385.603,334.608c-12.09-7.002-27.485,1.664-27.485,15.852v23.803h18.323V350.46
		C376.442,343.682,380.132,337.778,385.603,334.608z"/>
	<path style="fill:#BCBBBB;" d="M265.161,334.608c-12.09-7.002-27.485,1.664-27.485,15.852v23.803H256V350.46
		C256,343.682,259.69,337.778,265.161,334.608z"/>
</g>
<path style="fill:#666666;" d="M256,265.217c-7.815,0-14.15-6.335-14.15-14.15v-13.626c0-7.815,6.335-14.15,14.15-14.15
	c7.815,0,14.15,6.335,14.15,14.15v13.626C270.149,258.882,263.815,265.217,256,265.217z"/>
<path style="fill:#EFEFEF;" d="M260.151,41.386l14.596,29.574c0.674,1.366,1.978,2.313,3.485,2.532l32.637,4.742
	c3.797,0.552,5.313,5.217,2.565,7.895l-23.616,23.02c-1.091,1.063-1.589,2.595-1.331,4.097l5.575,32.505
	c0.648,3.781-3.32,6.665-6.716,4.88l-29.191-15.347c-1.348-0.709-2.959-0.709-4.308,0l-29.191,15.347
	c-3.396,1.785-7.365-1.098-6.716-4.88l5.575-32.505c0.257-1.502-0.24-3.034-1.331-4.097l-23.616-23.02
	c-2.747-2.678-1.231-7.344,2.565-7.895l32.636-4.742c1.508-0.219,2.811-1.166,3.485-2.532l14.596-29.574
	C253.547,37.945,258.453,37.945,260.151,41.386z"/>
<path style="fill:#DDDDDD;" d="M247.13,136.478c4.84-32.239,7.321-33.602,4.244-36.602c-24.331-24.101-24.379-22.912-24.911-25.324
	l-25.331,3.681c-3.797,0.552-5.313,5.217-2.565,7.895c22.865,23.238,25.673,22.881,24.947,27.117l-5.575,32.505
	c-0.648,3.781,3.321,6.665,6.716,4.88l22.647-11.906C247.073,138.039,246.993,137.281,247.13,136.478z"/>
<path style="fill:#F7CF9C;" d="M322.384,423.649c-7.141,0-187.17,0-194.668,0l8.837,73.034c1.089,8.749,8.525,15.317,17.342,15.317
	h204.167c8.841,0,16.298-6.586,17.39-15.359l8.831-72.992L322.384,423.649L322.384,423.649z"/>
<path style="fill:#EAB883;" d="M167.506,496.683l-8.837-73.034h-30.954l8.837,73.034c1.089,8.749,8.525,15.317,17.342,15.317h30.954
	C176.032,512,168.596,505.432,167.506,496.683z"/>
<path style="fill:#93482B;" d="M413.719,369.112c-17.747,0-297.286,0-315.439,0c-4.189,0-7.353,3.797-6.597,7.917l7.394,40.321
	c0.888,4.843,5.108,8.36,10.032,8.36c8.914,0,204.371,0,213.275,0h80.507c4.923,0,9.144-3.517,10.032-8.36l7.394-40.321
	C421.073,372.908,417.908,369.112,413.719,369.112z"/>
<path style="fill:#873921;" d="M150.721,417.35l-7.394-40.321c-0.755-4.12,2.409-7.917,6.597-7.917H98.28
	c-4.189,0-7.353,3.797-6.597,7.917l7.394,40.321c0.888,4.843,5.108,8.36,10.032,8.36h51.644
	C155.83,425.71,151.609,422.193,150.721,417.35z"/>
<path style="fill:#F9DEC0;" d="M304.242,476.786h-96.486c-4.268,0-7.727-3.459-7.727-7.727c0-4.268,3.46-7.727,7.727-7.727h96.486
	c4.268,0,7.727,3.459,7.727,7.727C311.97,473.327,308.51,476.786,304.242,476.786z"/>
<g>
	<path style="fill:#535454;" d="M166.789,239.823c-2.059,0.981-2.492,1.595-10.067,6.974c-6.228,4.496-7.631,13.19-3.135,19.418
		c2.72,3.767,6.973,5.768,11.288,5.768c2.821,0,5.67-0.856,8.131-2.633l7.89-5.697c0.582-0.42,1.107-0.887,1.603-1.374
		C168.334,269.016,155.736,250.693,166.789,239.823z"/>
	<path style="fill:#535454;" d="M255.759,249.878c-7.352,0-13.356-5.708-13.86-12.932c-0.092,1.12-0.03,0.449-0.049,14.478
		c0,7.682,6.227,13.909,13.909,13.909c7.682,0,13.909-6.227,13.909-13.909V238.03c0-0.366-0.02-0.726-0.049-1.084
		C269.116,244.17,263.111,249.878,255.759,249.878z"/>
	<path style="fill:#535454;" d="M335.448,263.629c4.315,0,8.568-2.001,11.288-5.768c4.075-5.644,3.29-13.302-1.525-18.037
		c0.749,0.357,1.48,0.775,2.177,1.277l7.89,5.697c6.228,4.496,7.631,13.19,3.135,19.418c-2.72,3.767-6.973,5.768-11.288,5.768
		c-2.821,0-5.67-0.856-8.131-2.633l-7.89-5.697c-0.582-0.42-1.107-0.887-1.603-1.374
		C331.396,263.181,333.428,263.629,335.448,263.629z"/>
</g>
<g>
</g>
<g>
</g>
<g>
</g>
<g>
</g>
<g>
</g>
<g>
</g>
<g>
</g>
<g>
</g>
<g>
</g>
<g>
</g>
<g>
</g>
<g>
</g>
<g>
</g>
<g>
</g>
<g>
</g>
</svg>
