<svg id="Capa_1" data-name="Capa 1" xmlns="http://www.w3.org/2000/svg" viewBox="0 0 39.9 55.68"><defs><style>.cls-1{fill:#fff;}</style></defs><title>greederboard-nobg</title><rect x="-1.78" y="28.8" width="57" height="1.9" transform="translate(-18.87 46.28) rotate(-75.52)"/><rect x="4.11" y="28.78" width="57" height="1.9" transform="translate(-14.44 51.97) rotate(-75.52)"/><path class="cls-1" d="M39.8,2.2" transform="translate(-10.1 -1.9)"/><path class="cls-1" d="M25.5,57.4" transform="translate(-10.1 -1.9)"/><g id="G"><path class="cls-1" d="M29,49.6a9.26,9.26,0,0,0,2-.8,6.2,6.2,0,0,0,1.4-1.4,13.68,13.68,0,0,0,.9-2.5l1.3-4.8a12.77,12.77,0,0,0,.5-2.8,1.73,1.73,0,0,0-1-1.8,11.88,11.88,0,0,0-3.6-.6l.3-1.1c2.3.1,5.4.2,9.4.2,3.5,0,6-.1,7.8-.2l-.3,1.1a7.74,7.74,0,0,0-2,.4,2.18,2.18,0,0,0-1.1,1.2,12.8,12.8,0,0,0-1,3L40.7,50.3H39.6a4.18,4.18,0,0,0-.3-2.3,1.29,1.29,0,0,0-1.3-.8,5.08,5.08,0,0,0-1.7.3,13,13,0,0,0-1.7.8,13.09,13.09,0,0,0-1.3.7,18.54,18.54,0,0,1-4,1.6,17.52,17.52,0,0,1-4,.5c-4.8,0-8.6-1.1-11.2-3.3a11.38,11.38,0,0,1-4-9.2,27,27,0,0,1,3.4-12.8A30.42,30.42,0,0,1,23,15.1a22.81,22.81,0,0,1,13.6-4.2,13,13,0,0,1,5.3.9,15.14,15.14,0,0,1,3.8,2.6,1.38,1.38,0,0,0,.9.5c.4,0,.7-.3,1.1-.8a12.64,12.64,0,0,0,1.1-2.5H50a83.78,83.78,0,0,0-3.5,12.5H45.3a32.93,32.93,0,0,0,.3-4.1,12.73,12.73,0,0,0-.2-2.2,6.36,6.36,0,0,0-.6-1.8,7.31,7.31,0,0,0-3.3-3.2,12.07,12.07,0,0,0-5.2-1.1c-3.5,0-6.6,1.6-9.2,4.7a34.41,34.41,0,0,0-6,11.4A41.75,41.75,0,0,0,19,40.1c0,3.3.7,5.7,2,7.2s3.3,2.3,5.9,2.3A3,3,0,0,0,29,49.6Z" transform="translate(-10.1 -1.9)"/></g><polygon points="24.4 24.5 22.6 24 27.7 4 29.7 4.2 24.4 24.5"/><polygon points="10.7 55 8.8 54.5 13.9 34.6 15.9 34.7 10.7 55"/></svg>