<?xml version="1.0" encoding="iso-8859-1"?>
<!-- Generator: Adobe Illustrator 19.0.0, SVG Export Plug-In . SVG Version: 6.00 Build 0)  -->
<svg version="1.1" id="Capa_1" xmlns="http://www.w3.org/2000/svg" xmlns:xlink="http://www.w3.org/1999/xlink" x="0px" y="0px"
	 viewBox="0 0 512 512" style="enable-background:new 0 0 512 512;" xml:space="preserve">
<path style="fill:#EAB883;" d="M373.539,129.839c-12.581-6.087-42.529-25-63.012-40.95c0,0-32.522-26.356-79.566-2.697l0,0
	c-28.177,14.17-47.732,38.97-72.158,65.289c-9.027,9.746-7.634,25.163,2.993,33.133c11.641,8.732,27.844,7.964,38.609-1.828
	l38.723-35.226c3.912-2.848,9.227-2.732,13.018,0.276c0,0,28.451,31.944,80.215,32.907c8.41,9.407,73.66,82.389,86.217,96.435
	c5.32,5.706,7.589,13.142,6.936,20.344h46.154V132.324C382.185,131.526,382.52,134.184,373.539,129.839z"/>
<path style="fill:#F7CF9C;" d="M418.579,277.178c-1.066-1.193,11.251,12.584-86.217-96.435
	c-51.764-0.963-80.215-32.907-80.215-32.907c-3.791-3.008-9.105-3.124-13.018-0.276l-38.723,35.226
	c-10.765,9.792-26.968,10.56-38.609,1.828c-10.628-7.971-12.021-23.387-2.993-33.133c21.271-21.227,40.341-49.289,72.157-65.289
	c-9.557-2.791-29.862-8.084-40.272-3.294c-24.699,11.364-52.528,41.289-64.21,46.941c-8.961,4.335-10.007,1.707-86.15,2.485v165.199
	h51.738c58.268,0,165.283,111.819,165.283,111.819l0,0l0,0l2.299,2.597c9.919,10.638,26.583,11.22,37.22,1.301
	c9.716-9.06,11.015-23.732,3.614-34.315l1.943,2.085c9.587,10.282,25.668,11.67,36.461,2.66c9.381-7.831,11.837-20.581,7.17-30.999
	c10.026,9.339,25.7,9.484,35.875-0.004c10.194-9.505,11.127-25.189,2.46-35.844c10.153,6.999,23.878,5.957,32.883-2.424
	C427.915,304.479,428.498,287.816,418.579,277.178z"/>
<g>
	<path style="fill:#EFEFEF;" d="M490.289,107.753c-11.991,0-21.711,9.72-21.711,21.711c0,0.335,0,11.016,0,10.722
		c0,0.391,0,4.005,0,3.891c0,0.313,0,6.799,0,6.412c0,0.106,0,6.287,0,6.181c0,0.145,0,2.181,0,2.06c0,0.831,0,3.616,0,3.51
		c0,0.132,0,2.821,0,2.672c0,0.195,0,5.896,0,5.57c0,0.105,0,6.289,0,6.181c0,0.322,0,9.762,0,9.461c0,71.589,0,42.131,0,113.714
		c0,11.991,9.72,21.711,21.711,21.711S512,311.829,512,299.838c0-0.335,0-11.016,0-10.721c0-3.274,0-162.923,0-159.653
		C512,117.473,502.28,107.753,490.289,107.753z"/>
	<path style="fill:#EFEFEF;" d="M21.711,107.753C9.72,107.753,0,117.473,0,129.464c0,122.271,0,47.219,0,170.374
		c0,11.991,9.72,21.711,21.711,21.711s21.711-9.72,21.711-21.711c0-16.851,0-147.362,0-170.374
		C43.421,117.473,33.701,107.753,21.711,107.753z"/>
</g>
<g>
	<path style="fill:#DDDDDD;" d="M490.289,223.331c-11.991,0-21.711-9.719-21.711-21.711c0,0.156,0,7.492,0,7.168
		c0,13.04,0,81.967,0,91.048c0,11.991,9.72,21.711,21.711,21.711S512,311.828,512,299.836c0-0.335,0-11.016,0-10.721
		c0-21.101,0-65.223,0-87.495C512,213.612,502.28,223.331,490.289,223.331z"/>
	<path style="fill:#DDDDDD;" d="M21.711,223.331C9.72,223.331,0,213.612,0,201.621c0,19.705,0,78.499,0,98.217
		c0,11.991,9.72,21.711,21.711,21.711s21.711-9.719,21.711-21.711c0-5.741,0-94.716,0-88.988c0-0.27,0-9.333,0-9.229
		C43.421,213.612,33.701,223.331,21.711,223.331z"/>
</g>
<g>
	<path style="fill:#EAB883;" d="M76.585,202.747c0-24.93,4.927-48.705,13.842-70.423H40.331v165.199h51.738
		c0.043-4.442,1.248-8.86,3.587-12.764C83.453,260.027,76.585,232.191,76.585,202.747z"/>
	<path style="fill:#EAB883;" d="M190.146,300.162c-9.322-10.37-25.285-11.219-35.655-1.897c-1.802,1.62-14.899,13.394-16.4,14.743
		l-3.926,3.53c-10.37,9.322-11.219,25.285-1.897,35.655s25.285,11.219,35.655,1.897c4.296-3.862,15.936-14.326,20.326-18.273
		C198.619,326.495,199.468,310.532,190.146,300.162z"/>
	<path style="fill:#EAB883;" d="M223.904,337.714c-9.322-10.37-25.285-11.219-35.655-1.897
		c-24.326,21.868-15.837,14.237-20.326,18.273c-10.37,9.322-11.219,25.285-1.897,35.655c9.322,10.37,25.285,11.219,35.655,1.897
		c4.734-4.255,15.67-14.087,20.326-18.273C232.377,364.046,233.226,348.084,223.904,337.714z"/>
	<path style="fill:#EAB883;" d="M257.662,375.266c-9.322-10.37-25.285-11.219-35.655-1.897
		c-4.681,4.208-16.381,14.726-20.326,18.273c-10.37,9.322-11.219,25.285-1.897,35.655c9.322,10.37,25.285,11.219,35.655,1.897
		c7.185-6.459,13.112-11.787,20.326-18.273C266.134,401.598,266.984,385.636,257.662,375.266z"/>
	<path style="fill:#EAB883;" d="M156.389,262.611c-9.322-10.37-25.285-11.219-35.655-1.897c-4.659,4.188-15.595,14.02-20.326,18.273
		c-10.37,9.322-11.219,25.285-1.897,35.655s25.285,11.219,35.655,1.897l3.926-3.53l7.128-6.408l9.272-8.335
		C164.862,288.943,165.711,272.981,156.389,262.611z"/>
</g>
<g>
	<path style="fill:#E0A773;" d="M120.661,294.68c-8.94-9.945-8.52-25.029,0.676-34.472c-0.868,0.728,2.225-2.037-20.929,18.778
		c-10.37,9.323-11.219,25.285-1.897,35.655s25.285,11.22,35.654,1.897l3.927-3.529l7.128-6.408c9.575-8.633,9.43-8.419,10.461-9.482
		C145.304,305.855,129.796,304.842,120.661,294.68z"/>
	<path style="fill:#E0A773;" d="M154.419,332.232c-8.94-9.945-8.52-25.029,0.676-34.472c-1.163,0.976,0.635-0.581-9.875,8.841
		c-0.94,0.845,3.731-3.354-11.054,9.937c-10.37,9.323-11.219,25.285-1.897,35.655s25.285,11.22,35.654,1.897
		c15.028-13.51,9.991-8.982,11.054-9.937c9.575-8.633,9.43-8.419,10.461-9.481C179.061,343.406,163.554,342.393,154.419,332.232z"/>
	<path style="fill:#E0A773;" d="M188.176,369.783c-8.94-9.945-8.52-25.029,0.676-34.472c-0.826,0.692-20.103,18.035-20.929,18.778
		c-10.37,9.323-11.219,25.285-1.897,35.655c9.322,10.37,25.285,11.22,35.654,1.897c2.003-1.8,20.733-18.612,21.515-19.419
		C212.819,380.958,197.311,379.945,188.176,369.783z"/>
	<path style="fill:#E0A773;" d="M221.934,407.335c-8.94-9.945-8.52-25.029,0.676-34.472c-0.826,0.692-20.103,18.035-20.929,18.778
		c-10.37,9.323-11.219,25.285-1.897,35.655c9.322,10.37,25.285,11.22,35.654,1.897c22.201-19.958,20.698-18.576,21.515-19.419
		C246.577,418.51,231.069,417.496,221.934,407.335z"/>
</g>
<g>
</g>
<g>
</g>
<g>
</g>
<g>
</g>
<g>
</g>
<g>
</g>
<g>
</g>
<g>
</g>
<g>
</g>
<g>
</g>
<g>
</g>
<g>
</g>
<g>
</g>
<g>
</g>
<g>
</g>
</svg>
