<?xml version="1.0" encoding="utf-8"?>
<!-- Generator: Adobe Illustrator 24.0.1, SVG Export Plug-In . SVG Version: 6.00 Build 0)  -->
<svg version="1.1" id="Capa_1" xmlns="http://www.w3.org/2000/svg" xmlns:xlink="http://www.w3.org/1999/xlink" x="0px" y="0px"
	 viewBox="0 0 512 512" style="enable-background:new 0 0 512 512;" xml:space="preserve">
<style type="text/css">
	.st0{fill:#EAE4D6;}
	.st1{fill:#DDD3C0;}
	.st2{fill:#FFFFFF;}
	.st3{fill:#F9F6ED;}
	.st4{fill:#F94A46;}
	.st5{fill:#CE995F;}
	.st6{fill:#70B5E8;}
	.st7{fill:#A57541;}
	.st8{fill:#FFB70D;}
	.st9{fill:#EF3C3C;}
	.st10{fill:#52A5D8;}
	.st11{fill:#F2A306;}
	.st12{fill:#E2BC9A;}
	.st13{fill:#C9B89F;}
	.st14{fill:#92B620;}
	.st15{fill:#EFEFEF;}
	.st16{fill:#83A00B;}
</style>
<path class="st0" d="M391.5,43.2c-36.1,0-279.7,0-336.2,0c-9,0-16.4,7.3-16.4,16.4c0,467.9-1.1,438.2,2,443.9
	c5.8,10.6,16.8,8.2,18.2,8.6c104.3,0,224.2,0,328.5,0c1.4-0.3,12.5,2,18.2-8.6c3.6-6.7,2,8.3,2-443.9
	C407.9,50.5,400.5,43.2,391.5,43.2z"/>
<path class="st1" d="M70.2,495.6c0-1.5,0-4,0-3.9c0-74.2,0-316.2,0-432.2c0-9,7.3-16.4,16.4-16.4c-5.2,0-19,0-31.2,0
	c-9,0-16.4,7.3-16.4,16.4c0,7,0,451,0,436.1c0,9,7.3,16.4,16.4,16.4c1.5,0,4,0,3.9,0h27.4C77.5,512,70.2,504.6,70.2,495.6z"/>
<g>
	<path class="st2" d="M172.2,81.7c-6.5,0-90.5,0-88.5,0c-2.6,0-4.8,2.1-4.8,4.8v95.8c0,2.6,2.1,4.8,4.8,4.8c3.6,0,6.7,0,10.3,0
		c32,0,46.6,0,78.2,0c2.6,0,4.8-2.1,4.8-4.8V86.5C176.9,83.8,174.8,81.7,172.2,81.7z"/>
	<path class="st2" d="M172.2,224.6c-16,0-67.8,0-88.5,0c-2.6,0-4.8,2.1-4.8,4.8v95.8c0,2.6,2.1,4.8,4.8,4.8c16.8,0,71,0,88.5,0
		c2.6,0,4.8-2.1,4.8-4.8v-95.8C176.9,226.8,174.8,224.6,172.2,224.6z"/>
	<path class="st2" d="M172.2,367.5c-9.4,0-75.2,0-88.5,0c-2.6,0-4.8,2.1-4.8,4.8v95.8c0,2.6,2.1,4.8,4.8,4.8c3.6,0,6.7,0,10.3,0
		c32,0,46.6,0,78.2,0c2.6,0,4.8-2.1,4.8-4.8v-95.8C176.9,369.7,174.8,367.5,172.2,367.5z"/>
</g>
<g>
	<path class="st3" d="M109.9,182.2V86.5c0-2.6,2.1-4.8,4.8-4.8c-1.4,0-32.2,0-30.9,0c-2.6,0-4.8,2.1-4.8,4.8v95.8
		c0,2.6,2.1,4.8,4.8,4.8h5.2c9.1,0,20.7,0,25.8,0C112,187,109.9,184.9,109.9,182.2z"/>
	<path class="st3" d="M109.9,325.2v-95.8c0-2.6,2.1-4.8,4.8-4.8c-11.8,0-24.8,0-30.9,0c-2.6,0-4.8,2.1-4.8,4.8v95.8
		c0,2.6,2.1,4.8,4.8,4.8c3.7,0,26.2,0,30.9,0C112,329.9,109.9,327.8,109.9,325.2z"/>
	<path class="st3" d="M109.9,468.1v-95.8c0-2.6,2.1-4.8,4.8-4.8c-11.8,0-24.8,0-30.9,0c-2.6,0-4.8,2.1-4.8,4.8v95.8
		c0,2.6,2.1,4.8,4.8,4.8c3.7,0,26.2,0,30.9,0C112,472.8,109.9,470.7,109.9,468.1z"/>
</g>
<path class="st4" d="M144.2,153.2h-32.5c-5.7,0-10.3,4.6-10.3,10.3v23.6h53v-23.6C154.4,157.8,149.8,153.2,144.2,153.2z"/>
<circle class="st5" cx="127.9" cy="117.5" r="17.1"/>
<path class="st6" d="M144.2,296.1h-32.5c-5.7,0-10.3,4.6-10.3,10.3V330h53v-23.6C154.4,300.7,149.8,296.1,144.2,296.1z"/>
<circle class="st7" cx="127.9" cy="260.5" r="17.1"/>
<path class="st8" d="M144.2,439h-32.5c-5.7,0-10.3,4.6-10.3,10.3v23.6h53v-23.6C154.4,443.6,149.8,439,144.2,439z"/>
<path class="st9" d="M138.2,153.2h-26.5c-5.7,0-10.3,4.6-10.3,10.3v23.6h26.5v-23.6C127.9,157.8,132.5,153.2,138.2,153.2z"/>
<path class="st10" d="M138.2,296.1h-26.5c-5.7,0-10.3,4.6-10.3,10.3V330h26.5v-23.6C127.9,300.7,132.5,296.1,138.2,296.1z"/>
<path class="st11" d="M138.2,439h-26.5c-5.7,0-10.3,4.6-10.3,10.3v23.6h26.5v-23.6C127.9,443.6,132.5,439,138.2,439z"/>
<circle class="st12" cx="127.9" cy="403.4" r="17.1"/>
<g>
	<path class="st13" d="M317.6,112.8H212.2c-4.3,0-7.7-3.5-7.7-7.7s3.5-7.7,7.7-7.7h105.4c4.3,0,7.7,3.5,7.7,7.7
		S321.9,112.8,317.6,112.8z"/>
	<path class="st13" d="M317.6,145.2H212.2c-4.3,0-7.7-3.5-7.7-7.7s3.5-7.7,7.7-7.7h105.4c4.3,0,7.7,3.5,7.7,7.7
		C325.4,141.8,321.9,145.2,317.6,145.2z"/>
	<path class="st13" d="M357.7,177.7H212.2c-4.3,0-7.7-3.5-7.7-7.7s3.5-7.7,7.7-7.7h145.5c4.3,0,7.7,3.5,7.7,7.7
		C365.5,174.2,362,177.7,357.7,177.7z"/>
	<path class="st13" d="M357.7,255.7H212.2c-4.3,0-7.7-3.5-7.7-7.7s3.5-7.7,7.7-7.7h145.5c4.3,0,7.7,3.5,7.7,7.7
		S362,255.7,357.7,255.7z"/>
	<path class="st13" d="M357.7,288.2H212.2c-4.3,0-7.7-3.5-7.7-7.7s3.5-7.7,7.7-7.7h145.5c4.3,0,7.7,3.5,7.7,7.7
		S362,288.2,357.7,288.2z"/>
	<path class="st13" d="M357.7,320.6H212.2c-4.3,0-7.7-3.5-7.7-7.7s3.5-7.7,7.7-7.7h145.5c4.3,0,7.7,3.5,7.7,7.7
		S362,320.6,357.7,320.6z"/>
	<path class="st13" d="M357.7,398.6H212.2c-4.3,0-7.7-3.5-7.7-7.7c0-4.3,3.5-7.7,7.7-7.7h145.5c4.3,0,7.7,3.5,7.7,7.7
		C365.5,395.2,362,398.6,357.7,398.6z"/>
	<path class="st13" d="M357.7,431.1H212.2c-4.3,0-7.7-3.5-7.7-7.7c0-4.3,3.5-7.7,7.7-7.7h145.5c4.3,0,7.7,3.5,7.7,7.7
		C365.5,427.6,362,431.1,357.7,431.1z"/>
	<path class="st13" d="M357.7,463.5H212.2c-4.3,0-7.7-3.5-7.7-7.7c0-4.3,3.5-7.7,7.7-7.7h145.5c4.3,0,7.7,3.5,7.7,7.7
		C365.5,460.1,362,463.5,357.7,463.5z"/>
</g>
<path class="st14" d="M470.7,56.5l-5.4-5.2c-7.8-7.6-3.2-16.8-3.1-20.6c0.8-4.7-2.4-9.2-7.2-9.9c-3.6-1.1-13.9,0.3-18.7-9.3L433,4.8
	c-2.1-4.3-7.4-6-11.6-3.8c-3.6,1.3-11,8.4-20.6,3.4L394.3,1c-4.2-2.2-9.5-0.6-11.6,3.8c-2.2,3.2-4,13.4-14.7,15l-7.3,1.1
	c-4.8,0.7-8,5.2-7.2,9.9c0.1,3.8,4.6,13.1-3.1,20.6l-5.4,5.2c-3.4,3.3-3.4,8.9,0,12.2l5.4,5.2c7.8,7.6,3.2,16.8,3.1,20.6
	c-0.8,4.7,2.4,9.2,7.2,9.9c3.6,1.1,13.9-0.3,18.7,9.3l3.3,6.7c1.5,3.1,4.6,4.8,7.7,4.8c3.3,0,4.8-1.7,10.5-4.4
	c9.6-5,16.9,2.1,20.6,3.4c4.2,2.2,9.5,0.5,11.6-3.8l3.3-6.7c4.8-9.7,15-8.2,18.7-9.3c4.8-0.7,8-5.2,7.2-9.9l-1.2-7.2
	c-1.8-10.7,7.3-15.5,9.7-18.6C474.1,65.3,474.1,59.8,470.7,56.5z"/>
<path class="st15" d="M400.7,89.1c-2.3,0-4.4-1.1-5.9-2.9l-12.4-15.4c-2.7-3.3-2.1-8.2,1.2-10.9c3.3-2.7,8.2-2.2,10.9,1.2l6.6,8.2
	l20.5-23.6c2.8-3.2,7.7-3.6,10.9-0.8c3.2,2.8,3.6,7.7,0.8,10.9l-26.6,30.5C405.2,88.2,403,89.2,400.7,89.1z"/>
<path class="st16" d="M379.5,83.8C363.4,56,371.8,20.7,398,2.9L394.3,1c-4.2-2.2-9.5-0.6-11.6,3.8c-2.2,3.2-4,13.4-14.7,15l-7.3,1.1
	c-4.8,0.7-8,5.2-7.2,9.9c0.1,3.8,4.6,13.1-3.1,20.6l-5.4,5.2c-3.4,3.3-3.4,8.9,0,12.2l5.4,5.2c7.8,7.6,3.2,16.8,3.1,20.6
	c-0.8,4.7,2.4,9.2,7.2,9.9c3.6,1.1,13.9-0.3,18.7,9.3l3.3,6.7c1.5,3.1,4.6,4.8,7.7,4.8c3.3,0,4.8-1.7,10.5-4.4
	c9.6-5,16.9,2.1,20.6,3.4c4.2,2.2,9.5,0.5,11.6-3.8l3-6.2C413.7,115.6,391.5,104.5,379.5,83.8z"/>
</svg>
